<?xml version="1.0" encoding="UTF-8" standalone="no"?>
<svg
   height="724"
   width="724"
   viewBox="0 0 919 919"
   version="1.1"
   id="svg3"
   sodipodi:docname="GHS-silhouette-grey.svg"
   inkscape:version="1.3.2 (091e20e, 2023-11-25)"
   xmlns:inkscape="http://www.inkscape.org/namespaces/inkscape"
   xmlns:sodipodi="http://sodipodi.sourceforge.net/DTD/sodipodi-0.dtd"
   xmlns="http://www.w3.org/2000/svg"
   xmlns:svg="http://www.w3.org/2000/svg">
  <defs
     id="defs3" />
  <sodipodi:namedview
     id="namedview3"
     pagecolor="#ffffff"
     bordercolor="#000000"
     borderopacity="0.25"
     inkscape:showpageshadow="2"
     inkscape:pageopacity="0.0"
     inkscape:pagecheckerboard="0"
     inkscape:deskcolor="#d1d1d1"
     showgrid="false"
     inkscape:zoom="1.9033873"
     inkscape:cx="484.66226"
     inkscape:cy="412.42263"
     inkscape:window-width="1928"
     inkscape:window-height="1283"
     inkscape:window-x="2053"
     inkscape:window-y="69"
     inkscape:window-maximized="0"
     inkscape:current-layer="svg3" />
  <path
     fill="#ff0000"
     d="M 459.5,909.3 909.3,459.5 459.5,9.7 9.7,459.5 Z"
     id="path1"
     style="display:inline;fill:#808080;fill-opacity:1" />
  <path
     fill="#ffffff"
     d="M 459.5,838 81,459.5 459.5,80.9 838,459.5 Z"
     id="path2"
     style="display:inline" />
  <path
     id="path3"
     d="m 461.57755,170.10108 c -52.98961,0.0131 -95.97874,46.30705 -95.97874,103.3989 0,37.09996 13.88111,89.20024 40.94108,121.10021 l -3.3097,33.86055 -130.93261,48.77279 0.21321,0.0769 c -12.1284,4.88565 -21.12008,17.85851 -21.12008,30.71944 v 41.54104 l 67.29965,68.29876 c 0.0665,0.0147 0.141,0.009 0.20825,0.0223 l 11.33726,11.49345 c 0.0152,0.0694 0.008,0.14689 0.0248,0.21569 l 122.19848,124.1 c 0.11283,-0.0473 0.20206,-0.13234 0.30989,-0.18841 l 14.13873,-0.32478 145.05646,-133.6597 c 0.21016,-0.16874 0.39863,-0.35391 0.59005,-0.54294 l 67.10628,-61.83555 -0.13388,-0.002 1.19248,-1.09827 v -45.39863 c 0,-13.76999 -14.81999,-30.98085 -32.73997,-37.10084 -3.98702,-1.36556 -30.28793,-9.91065 -30.45913,-9.96628 l -0.005,0.0347 -31.07396,-10.15718 -72.50096,-23.34142 -0.29006,-30.95001 c 10.99998,-11.83998 19.59068,-27.10049 25.81067,-43.69048 11.77999,-31.39997 18.09797,-64.59886 18.09797,-81.97884 0,-44.995 -42.9893,-103.38605 -95.98121,-103.3989 z m 155.94251,293.48212 0.01,-0.062 -0.10908,0.0297 z"
     style="display:inline" />
</svg>
